<svg width="81" height="80" viewBox="0 0 81 80" fill="none" xmlns="http://www.w3.org/2000/svg">
<path d="M40.5605 71.25C40.5605 74.7012 37.7618 77.5 34.3105 77.5C30.8593 77.5 28.0605 74.7012 28.0605 71.25H40.5605Z" fill="#F4B2B0"/>
<path d="M64.3105 41.25L70.5605 61.25L60.5605 71.25H23.0605V65C23.0605 56.7163 29.7768 50 38.0605 50H49.3105V63.75H54.3105C57.0718 63.75 59.3105 61.5112 59.3105 58.75V41.25H64.3105Z" fill="#F4B2B0"/>
<path d="M56.8105 33.75H66.8105V41.25H56.8105V33.75Z" fill="#F4B2B0"/>
<path d="M66.8105 35L71.8105 32.5V42.5L66.8105 40V35Z" fill="#F4B2B0"/>
<path d="M70.5605 61.25C74.703 61.25 78.0605 64.6075 78.0605 68.75V71.25H60.5605L70.5605 61.25Z" fill="#F4B2B0"/>
<path d="M75.5605 71.25C75.5605 74.7012 72.7618 77.5 69.3105 77.5C65.8593 77.5 63.0605 74.7012 63.0605 71.25H75.5605Z" fill="#F4B2B0"/>
<path d="M50.5605 36.25H56.8105V40H50.5605V36.25Z" fill="#F4B2B0"/>
<path d="M39.3105 50V47.5C39.3105 46.1187 40.4293 45 41.8105 45H46.8105C48.1918 45 49.3105 46.1187 49.3105 47.5V50H39.3105Z" fill="#F4B2B0"/>
<path d="M71.4955 60.0513L66.0105 42.5H66.8105C67.2518 42.5 67.6205 42.2587 67.843 41.9137L71.2518 43.6175C71.428 43.7063 71.6193 43.75 71.8105 43.75C72.0393 43.75 72.2668 43.6875 72.468 43.5638C72.8355 43.335 73.0605 42.9338 73.0605 42.5V32.5C73.0605 32.0662 72.8355 31.665 72.468 31.4363C72.0993 31.2063 71.638 31.1887 71.2518 31.3812L67.843 33.085C67.6205 32.7413 67.2518 32.5 66.8105 32.5H56.8105C56.1205 32.5 55.5605 33.0588 55.5605 33.75V35H50.5605C49.8705 35 49.3105 35.5588 49.3105 36.25V40C49.3105 40.6912 49.8705 41.25 50.5605 41.25H55.5605C55.5605 41.9412 56.1205 42.5 56.8105 42.5H58.0605V58.75C58.0605 60.8175 56.378 62.5 54.3105 62.5H50.5605V50V47.5C50.5605 45.4325 48.878 43.75 46.8105 43.75H41.8105C39.743 43.75 38.0605 45.4325 38.0605 47.5V48.75H35.5605V39.6738C41.048 35.6738 44.3105 29.31 44.3105 22.5C44.3105 10.7825 34.778 1.25 23.0605 1.25C11.343 1.25 1.81055 10.7825 1.81055 22.5C1.81055 30.43 6.10555 37.5312 13.0605 41.24V48.75H10.5605V51.25H19.7368L23.0118 58.8925C22.243 60.78 21.8105 62.8387 21.8105 65V71.25C21.8105 71.9413 22.3705 72.5 23.0605 72.5H26.923C27.5205 76.0413 30.6005 78.75 34.3105 78.75C38.0205 78.75 41.0993 76.0413 41.698 72.5H60.5605H61.923C62.5205 76.0413 65.6005 78.75 69.3105 78.75C73.0205 78.75 76.0993 76.0413 76.698 72.5H78.0605C78.7505 72.5 79.3105 71.9413 79.3105 71.25V68.75C79.3105 64.2412 75.8818 60.52 71.4955 60.0513ZM51.8105 38.75V37.5H55.5605V38.75H51.8105ZM70.5605 40.4775L68.0605 39.2275V35.7725L70.5605 34.5225V40.4775ZM58.0605 35H65.5605V40H58.0605V35ZM41.8105 46.25H46.8105C47.4993 46.25 48.0605 46.81 48.0605 47.5V48.75H40.5605V47.5C40.5605 46.81 41.1218 46.25 41.8105 46.25ZM33.0605 43.75H15.5605V36.25H33.0605V43.75ZM10.7118 36.6162L12.6943 34.6338L10.9268 32.8662L8.94055 34.8525C6.2643 31.8062 4.6268 27.9387 4.3543 23.75H6.81055V21.25H4.3743C4.65555 17.0212 6.33555 13.1788 8.9668 10.1737L10.9268 12.1337L12.6943 10.3663L10.7343 8.40625C13.7393 5.775 17.5818 4.09375 21.8105 3.81375V6.25H24.3105V3.81375C28.5393 4.095 32.3818 5.775 35.3868 8.40625L33.4268 10.3663L35.1943 12.1337L37.1543 10.1737C39.7855 13.1788 41.4668 17.0212 41.7468 21.25H39.3105V23.75H41.7668C41.4405 28.6525 39.2018 33.2113 35.5605 36.47V35C35.5605 34.3088 35.0005 33.75 34.3105 33.75H14.3105C13.6205 33.75 13.0605 34.3088 13.0605 35V38.3538C12.2268 37.83 11.4418 37.2512 10.7118 36.6162ZM15.5605 46.25H33.0605V48.75H15.5605V46.25ZM22.4555 51.25H29.4393C27.4768 52.485 25.7918 54.1175 24.5118 56.0488L22.4555 51.25ZM34.3105 76.25C31.988 76.25 30.0468 74.6513 29.488 72.5H39.133C38.5743 74.6513 36.633 76.25 34.3105 76.25ZM60.043 70H24.3105V65C24.3105 57.4188 30.4793 51.25 38.0605 51.25H39.3105H48.0605V63.75C48.0605 64.4412 48.6205 65 49.3105 65H54.3105C57.7568 65 60.5605 62.1963 60.5605 58.75V42.5H63.3918L69.1418 60.9013L60.043 70ZM69.3105 76.25C66.988 76.25 65.0468 74.6513 64.488 72.5H74.133C73.5743 74.6513 71.633 76.25 69.3105 76.25ZM76.8105 70H63.578L71.0305 62.5475C74.2543 62.7925 76.8105 65.465 76.8105 68.75V70Z" fill="#B3404A"/>
<path d="M33.0605 62.5H43.0605V65H33.0605V62.5Z" fill="#B3404A"/>
<path d="M33.0605 57.5H43.0605V60H33.0605V57.5Z" fill="#B3404A"/>
<path d="M1.81055 60H16.8105V62.5H1.81055V60Z" fill="#B3404A"/>
<path d="M1.81055 70H16.8105V72.5H1.81055V70Z" fill="#B3404A"/>
<path d="M11.8105 65H19.3105V67.5H11.8105V65Z" fill="#B3404A"/>
<path d="M6.81055 65H9.31055V67.5H6.81055V65Z" fill="#B3404A"/>
<path d="M28.4268 29.6338L30.1943 27.8662L24.3105 21.9825V8.75H21.8105V22.5C21.8105 22.8325 21.9418 23.15 22.1768 23.3838L28.4268 29.6338Z" fill="#B3404A"/>
</svg>
