<svg width="144" height="144" viewBox="0 0 144 144" fill="none" xmlns="http://www.w3.org/2000/svg">
<g clip-path="url(#clip0_389_3784)">
<path d="M112.589 121.019C105.479 121.001 98.566 118.67 92.8986 114.377C90.7112 112.713 88.7232 110.803 86.974 108.683C81.3466 101.739 78.4337 92.9873 78.7773 84.056C78.5272 73.9442 81.8651 64.0705 88.1993 56.1846C94.5336 48.2988 103.455 42.9101 113.383 40.9736C115.885 40.4529 118.475 40.5294 120.943 41.1967C123.41 41.8641 125.686 43.1035 127.585 44.8146C129.521 46.6007 130.98 48.8424 131.829 51.3358C132.678 53.8292 132.891 56.4952 132.447 59.0917C132.232 60.4522 132.248 61.8394 132.495 63.1945C132.535 63.4212 132.583 63.6426 132.633 63.8552C133 65.0658 133.655 66.1697 134.541 67.0726C139.077 72.0067 142.036 78.1839 143.036 84.8114C144.036 91.4389 143.033 98.2141 140.156 104.267C138.38 107.769 135.941 110.893 132.975 113.465C127.316 118.364 120.074 121.047 112.589 121.019ZM116.747 45.0992C115.918 45.0992 115.091 45.1828 114.279 45.3488C105.351 47.0798 97.3276 51.9273 91.6424 59.0261C85.9571 66.1248 82.9795 75.0129 83.241 84.1039C82.9116 91.9816 85.4635 99.7095 90.4193 105.842C91.9493 107.696 93.6878 109.367 95.6004 110.822C100.49 114.526 106.453 116.538 112.587 116.553C118.993 116.581 125.194 114.288 130.04 110.098C132.573 107.903 134.655 105.237 136.172 102.248C138.647 96.9969 139.497 91.1258 138.613 85.388C137.728 79.6502 135.15 74.3074 131.209 70.0448C129.824 68.5927 128.821 66.8207 128.287 64.8867C128.217 64.5934 128.156 64.2957 128.099 63.9915C127.766 62.145 127.744 60.2556 128.034 58.4017C128.316 56.7309 128.226 55.0183 127.771 53.3862C127.315 51.7542 126.505 50.2428 125.398 48.9599C125.127 48.6518 124.84 48.3581 124.539 48.0801C122.412 46.1366 119.628 45.0714 116.747 45.0992Z" fill="#B3404A"/>
<path d="M129.543 71.5317C127.915 69.8116 126.739 67.7145 126.12 65.4283C126.041 65.0936 125.965 64.7469 125.902 64.3926C125.523 62.2979 125.498 60.1542 125.83 58.0515C126.059 56.7001 125.987 55.3149 125.619 53.9945C125.251 52.6742 124.596 51.4513 123.702 50.413C123.514 50.2015 123.311 49.9909 123.087 49.7784L123.035 49.7293L123.026 49.7206C121.914 48.7245 120.581 48.007 119.137 47.6273C117.694 47.2476 116.18 47.2166 114.722 47.5368C107.505 48.975 100.886 52.5447 95.7186 57.7844C88.9814 64.873 85.3038 74.3279 85.4808 84.1059C85.122 91.4669 87.4943 98.701 92.1424 104.42C93.5618 106.14 95.1752 107.691 96.9506 109.041C101.437 112.461 106.921 114.317 112.563 114.324C118.44 114.357 124.129 112.258 128.575 108.415C130.89 106.408 132.794 103.971 134.182 101.239C136.456 96.3882 137.229 90.9692 136.403 85.6763C135.576 80.3834 133.188 75.458 129.543 71.5317ZM130.198 99.2194C129.07 101.439 127.522 103.418 125.64 105.048C122.013 108.084 117.455 109.785 112.725 109.864C107.996 109.944 103.382 108.399 99.6546 105.486C98.1534 104.344 96.7888 103.033 95.5879 101.579C91.6164 96.6709 89.6057 90.4648 89.9446 84.1604C89.7551 75.5307 92.9771 67.1745 98.9111 60.9058C103.455 56.3055 109.274 53.1731 115.616 51.9132C115.989 51.8359 116.369 51.7968 116.75 51.7965C117.943 51.7745 119.1 52.2027 119.991 52.9958L120.023 53.0275C120.145 53.1419 120.257 53.2586 120.355 53.3698C120.814 53.9169 121.148 54.5584 121.331 55.2488C121.515 55.9392 121.544 56.6616 121.417 57.3646C121.01 59.9593 121.041 62.604 121.508 65.1885C121.587 65.6235 121.676 66.0443 121.774 66.4597C122.562 69.4685 124.087 72.2336 126.212 74.5048C129.262 77.759 131.271 81.8499 131.981 86.2531C132.691 90.6563 132.07 95.1713 130.198 99.2194Z" fill="#B3404A"/>
<path d="M118.938 113.419C118.497 113.419 118.065 113.288 117.698 113.043C117.331 112.799 117.045 112.45 116.875 112.043L108.262 91.2926L87.0387 80.5862C86.5115 80.3187 86.112 79.8531 85.9277 79.2915C85.7434 78.7298 85.7894 78.118 86.0556 77.5902C86.3218 77.0625 86.7864 76.6618 87.3476 76.4762C87.9088 76.2906 88.5208 76.3351 89.0492 76.6001L111.012 87.6795C111.489 87.9193 111.864 88.3224 112.069 88.8156L121.001 110.329C121.142 110.668 121.197 111.037 121.162 111.403C121.126 111.769 121.001 112.12 120.797 112.426C120.593 112.732 120.316 112.982 119.992 113.156C119.668 113.329 119.306 113.419 118.938 113.419Z" fill="#B3404A"/>
<path d="M110.006 91.9058C109.493 91.9065 108.995 91.7307 108.597 91.4077C108.198 91.0848 107.923 90.6345 107.817 90.1326C107.712 89.6307 107.782 89.1076 108.017 88.6515C108.251 88.1953 108.636 87.8337 109.105 87.6276L131.434 77.8282C131.703 77.7086 131.993 77.6432 132.287 77.6359C132.581 77.6287 132.874 77.6796 133.148 77.7857C133.423 77.8919 133.674 78.0513 133.886 78.2546C134.099 78.458 134.269 78.7014 134.388 78.9708C134.506 79.2402 134.57 79.5304 134.576 79.8246C134.582 80.1188 134.529 80.4113 134.422 80.6852C134.315 80.9591 134.154 81.2091 133.95 81.4208C133.745 81.6325 133.501 81.8018 133.231 81.9188L110.902 91.7183C110.619 91.8414 110.314 91.9052 110.006 91.9058Z" fill="#B3404A"/>
<path d="M2.82469 143.347C2.53142 143.348 2.24098 143.29 1.97 143.178C1.69901 143.066 1.45279 142.901 1.24542 142.694C1.03804 142.486 0.873573 142.24 0.761419 141.969C0.649266 141.698 0.591627 141.408 0.591797 141.115V123.943C0.640412 120.651 1.11164 117.38 1.9939 114.209C2.12164 113.678 2.43922 113.213 2.88663 112.901C3.33404 112.588 3.88031 112.451 4.42224 112.514C4.96418 112.577 5.46425 112.836 5.82799 113.243C6.19172 113.65 6.39395 114.176 6.39645 114.721V114.743C6.39654 114.942 6.37014 115.14 6.31794 115.332C5.52773 118.136 5.10408 121.03 5.05758 123.943V141.115C5.05775 141.408 5.00011 141.698 4.88796 141.969C4.7758 142.24 4.61134 142.486 4.40396 142.694C4.19658 142.901 3.95036 143.066 3.67938 143.178C3.4084 143.29 3.11797 143.348 2.82469 143.347Z" fill="#B3404A"/>
<path d="M34.0872 90.2269C33.5257 90.2263 32.985 90.014 32.573 89.6325C32.161 89.251 31.9079 88.7282 31.8642 88.1684C31.8205 87.6086 31.9893 87.0528 32.337 86.6119C32.6848 86.171 33.1859 85.8774 33.7405 85.7895C36.0874 85.4168 38.4623 85.249 40.8382 85.288C41.4262 85.3009 41.9854 85.5452 42.3944 85.9679C42.8033 86.3906 43.029 86.9576 43.0224 87.5457C43.0158 88.1338 42.7774 88.6955 42.3591 89.109C41.9408 89.5224 41.3762 89.7541 40.7881 89.7538H40.7379C38.6289 89.7114 36.5204 89.8603 34.4383 90.1986C34.3223 90.2177 34.2048 90.2272 34.0872 90.2269Z" fill="#B3404A"/>
<path d="M51.9088 98.6434C48.8069 98.6796 45.788 97.6421 43.3637 95.7066C40.9395 93.7712 39.2591 91.057 38.6075 88.0241C38.5701 87.8588 38.5511 87.6899 38.5508 87.5204V73.7251C38.5508 73.1329 38.786 72.5649 39.2048 72.1462C39.6235 71.7274 40.1915 71.4922 40.7837 71.4922C41.3759 71.4922 41.9438 71.7274 42.3626 72.1462C42.7813 72.5649 43.0166 73.1329 43.0166 73.7251V87.2522C43.4973 89.244 44.6398 91.0137 46.2572 92.2718C47.8745 93.5298 49.8709 94.2018 51.9198 94.1776H51.9612C54.0089 94.2044 56.0053 93.5367 57.6249 92.2834C59.2445 91.0301 60.3918 89.2651 60.8797 87.2762V74.015C60.8797 73.4228 61.115 72.8549 61.5337 72.4361C61.9525 72.0174 62.5204 71.7821 63.1126 71.7821C63.7048 71.7821 64.2728 72.0174 64.6915 72.4361C65.1103 72.8549 65.3455 73.4228 65.3455 74.015V87.5465C65.3456 87.7168 65.3258 87.8866 65.2866 88.0524C64.6266 91.0815 62.9409 93.7898 60.5145 95.7196C58.0882 97.6493 55.0699 98.6821 51.9699 98.6433L51.9088 98.6434Z" fill="#B3404A"/>
<path d="M51.9621 80.8259C37.9804 80.8259 25.8803 60.8084 25.1848 44.2339C25.1608 43.6833 25.1543 43.2068 25.1543 42.8339V33.9341C25.1542 33.6408 25.2119 33.3504 25.3241 33.0795C25.4363 32.8085 25.6008 32.5624 25.8081 32.355C26.0155 32.1476 26.2617 31.9832 26.5326 31.871C26.8036 31.7588 27.0939 31.7011 27.3872 31.7012H76.5108C76.8041 31.7011 77.0945 31.7588 77.3654 31.871C77.6364 31.9832 77.8826 32.1476 78.0899 32.355C78.2973 32.5624 78.4617 32.8085 78.5739 33.0795C78.6861 33.3504 78.7438 33.6408 78.7437 33.9341V42.834C78.7503 43.1742 78.7546 43.6452 78.7437 44.1882C78.4428 58.7728 67.6098 80.8259 51.9621 80.8259ZM29.6201 36.167V42.834C29.6201 43.1567 29.6266 43.5678 29.6462 44.0453C30.2459 58.2898 40.8718 76.3601 51.9621 76.3601C64.5221 76.3601 74.0119 57.0873 74.278 44.0944C74.2888 43.619 74.2845 43.2069 74.278 42.8755V36.167H29.6201Z" fill="#B3404A"/>
<path d="M74.623 114.32H34.0864C33.4942 114.32 32.9263 114.084 32.5075 113.666C32.0888 113.247 31.8535 112.679 31.8535 112.087C31.8535 111.495 32.0888 110.927 32.5075 110.508C32.9263 110.089 33.4942 109.854 34.0864 109.854H74.2785V89.6728C74.2785 89.0806 74.5137 88.5127 74.9325 88.0939C75.3512 87.6752 75.9192 87.4399 76.5114 87.4399C77.1036 87.4399 77.6715 87.6752 78.0903 88.0939C78.509 88.5127 78.7443 89.0806 78.7443 89.6728V110.198C78.7429 111.291 78.3083 112.339 77.5357 113.111C76.7631 113.884 75.7156 114.318 74.623 114.32Z" fill="#B3404A"/>
<path d="M16.2212 143.323C15.9279 143.323 15.6375 143.266 15.3665 143.154C15.0955 143.042 14.8493 142.877 14.6419 142.67C14.4345 142.462 14.2701 142.216 14.1579 141.945C14.0458 141.674 13.9881 141.384 13.9883 141.09V118.761C13.9883 118.169 14.2235 117.601 14.6423 117.183C15.061 116.764 15.629 116.529 16.2212 116.529C16.8134 116.529 17.3813 116.764 17.8001 117.183C18.2188 117.601 18.4541 118.169 18.4541 118.761V141.09C18.4542 141.384 18.3966 141.674 18.2844 141.945C18.1723 142.216 18.0078 142.462 17.8004 142.67C17.5931 142.877 17.3468 143.042 17.0759 143.154C16.8049 143.266 16.5144 143.323 16.2212 143.323Z" fill="#B3404A"/>
<path d="M85.4419 127.717C85.1486 127.717 84.8582 127.659 84.5872 127.547C84.3162 127.435 84.07 127.271 83.8626 127.063C83.6552 126.856 83.4908 126.61 83.3786 126.339C83.2665 126.068 83.2088 125.777 83.209 125.484V102.508C83.209 101.915 83.4442 101.347 83.863 100.929C84.2817 100.51 84.8497 100.275 85.4419 100.275C86.0341 100.275 86.602 100.51 87.0208 100.929C87.4395 101.347 87.6748 101.915 87.6748 102.508V125.484C87.6749 125.777 87.6173 126.068 87.5051 126.339C87.393 126.61 87.2285 126.856 87.0211 127.063C86.8138 127.271 86.5675 127.435 86.2966 127.547C86.0256 127.659 85.7352 127.717 85.4419 127.717Z" fill="#B3404A"/>
<path d="M45.2504 105.388C44.7721 105.388 44.3064 105.235 43.9224 104.95L32.7579 96.681C32.5216 96.5069 32.3219 96.2878 32.1703 96.0364C32.0187 95.785 31.9182 95.5062 31.8745 95.2159C31.8308 94.9256 31.8448 94.6295 31.9156 94.3446C31.9865 94.0597 32.1129 93.7916 32.2875 93.5556C32.4621 93.3197 32.6816 93.1204 32.9333 92.9694C33.185 92.8183 33.4641 92.7184 33.7545 92.6753C34.0449 92.6322 34.3409 92.6468 34.6256 92.7183C34.9104 92.7897 35.1782 92.9167 35.4138 93.0918L45.0301 100.214L50.3899 94.8341C50.7707 94.4512 51.2774 94.2196 51.8161 94.1823C52.3547 94.145 52.8886 94.3046 53.3184 94.6313L60.789 100.285L75.0521 87.9784C75.5005 87.5932 76.0834 87.4016 76.6729 87.4457C77.2624 87.4897 77.8103 87.7657 78.1966 88.2132C78.5829 88.6606 78.7759 89.243 78.7334 89.8326C78.6908 90.4222 78.4162 90.9709 77.9697 91.3583L62.3394 104.845C61.9525 105.179 61.4628 105.37 60.952 105.386C60.4413 105.402 59.9404 105.243 59.533 104.934L52.178 99.3673L46.8313 104.731C46.6241 104.94 46.3777 105.105 46.1064 105.218C45.8351 105.33 45.5442 105.388 45.2504 105.388Z" fill="#B3404A"/>
<path d="M45.2503 36.1672C44.9571 36.1673 44.6667 36.1096 44.3957 35.9974C44.1248 35.8852 43.8786 35.7208 43.6712 35.5134C43.4639 35.306 43.2994 35.0599 43.1872 34.7889C43.075 34.518 43.0173 34.2276 43.0174 33.9343V5.53362L31.5608 8.39782C31.0059 8.53625 30.5134 8.85645 30.1616 9.30737C29.8099 9.75829 29.6193 10.314 29.6201 10.8858V33.9343C29.6201 34.5265 29.3848 35.0945 28.9661 35.5132C28.5473 35.932 27.9794 36.1672 27.3872 36.1672C26.795 36.1672 26.227 35.932 25.8083 35.5132C25.3896 35.0945 25.1543 34.5265 25.1543 33.9343V10.8858C25.1526 9.31784 25.6757 7.7944 26.6404 6.55826C27.605 5.32212 28.9556 4.44442 30.477 4.06502L44.7095 0.507444C45.0387 0.425421 45.3822 0.419443 45.714 0.489965C46.0458 0.560487 46.3571 0.705655 46.6245 0.914455C46.8918 1.12326 47.1081 1.3902 47.2569 1.69504C47.4057 1.99988 47.4831 2.33461 47.4832 2.67382V33.9343C47.4833 34.2276 47.4256 34.518 47.3134 34.7889C47.2012 35.0599 47.0367 35.306 46.8294 35.5134C46.622 35.7208 46.3758 35.8852 46.1049 35.9974C45.8339 36.1096 45.5435 36.1673 45.2503 36.1672Z" fill="#B3404A"/>
<path d="M76.5106 36.1671C76.2174 36.1671 75.927 36.1094 75.656 35.9973C75.3851 35.8851 75.1389 35.7206 74.9315 35.5132C74.7242 35.3059 74.5597 35.0597 74.4475 34.7888C74.3353 34.5178 74.2776 34.2274 74.2777 33.9342V11.3C74.2752 10.6838 74.0519 10.0889 73.6481 9.62336C73.2444 9.15783 72.6872 8.85252 72.0775 8.76287L44.9339 4.88367C44.3478 4.79981 43.819 4.48655 43.4638 4.01279C43.1086 3.53904 42.9562 2.94361 43.0401 2.35748C43.124 1.77135 43.4372 1.24255 43.911 0.887389C44.3847 0.532231 44.9801 0.379817 45.5663 0.463676L72.7077 4.34179C74.38 4.58719 75.9089 5.42435 77.0164 6.70116C78.124 7.97797 78.7368 9.60972 78.7435 11.3V33.9342C78.7436 34.2274 78.6859 34.5178 78.5737 34.7888C78.4615 35.0597 78.297 35.3059 78.0897 35.5132C77.8823 35.7206 77.6361 35.8851 77.3652 35.9973C77.0942 36.1094 76.8039 36.1671 76.5106 36.1671Z" fill="#B3404A"/>
<path d="M34.0859 127.717C33.7926 127.717 33.5022 127.659 33.2312 127.547C32.9602 127.435 32.714 127.271 32.5066 127.063C32.2992 126.856 32.1348 126.61 32.0226 126.339C31.9104 126.068 31.8528 125.777 31.853 125.484V78.5932H29.6201V125.484C29.6201 126.076 29.3848 126.644 28.9661 127.063C28.5473 127.482 27.9794 127.717 27.3872 127.717C26.795 127.717 26.227 127.482 25.8083 127.063C25.3895 126.644 25.1543 126.076 25.1543 125.484V76.3603C25.1541 76.0671 25.2118 75.7766 25.3239 75.5056C25.4361 75.2347 25.6005 74.9884 25.8079 74.7811C26.0153 74.5737 26.2615 74.4092 26.5325 74.2971C26.8035 74.1849 27.0939 74.1273 27.3872 74.1274H34.0859C34.3791 74.1273 34.6696 74.1849 34.9406 74.2971C35.2115 74.4092 35.4578 74.5737 35.6651 74.7811C35.8725 74.9884 36.037 75.2347 36.1491 75.5056C36.2613 75.7766 36.3189 76.0671 36.3188 76.3603V125.484C36.3189 125.777 36.2613 126.068 36.1491 126.339C36.037 126.61 35.8725 126.856 35.6651 127.063C35.4578 127.271 35.2115 127.435 34.9406 127.547C34.6696 127.659 34.3791 127.717 34.0859 127.717Z" fill="#B3404A"/>
<path d="M4.86241 121.007C4.34431 121.008 3.84225 120.828 3.44238 120.498C3.04252 120.169 2.76977 119.71 2.67093 119.202C-0.11072 104.918 -0.101128 90.2306 2.69918 75.9504C2.79863 75.4427 3.07131 74.9853 3.47063 74.6564C3.86994 74.3275 4.3711 74.1474 4.88844 74.1471L27.3853 74.1274C27.9775 74.1271 28.5478 74.3621 28.9667 74.7807C29.3857 75.1992 29.6212 75.767 29.6215 76.3592C29.6218 76.9514 29.3869 77.5195 28.9683 77.9384C28.5498 78.3574 27.982 78.5929 27.3898 78.5932L6.74422 78.6107C4.50452 91.1536 4.49562 103.993 6.71794 116.539L27.3787 116.526H27.381C27.9732 116.526 28.5412 116.761 28.9602 117.179C29.3792 117.598 29.6147 118.166 29.615 118.758C29.6153 119.35 29.3803 119.918 28.9618 120.337C28.5432 120.756 27.9754 120.992 27.3832 120.992L4.86241 121.007Z" fill="#B3404A"/>
<path d="M18.4997 87.5249C17.9075 87.5278 17.3384 87.2953 16.9176 86.8786C16.4968 86.4619 16.2588 85.8951 16.2559 85.3029C16.253 84.7107 16.4855 84.1416 16.9022 83.7208C17.3189 83.3 17.8857 83.062 18.4779 83.0591H18.4997C19.0919 83.0591 19.6598 83.2943 20.0786 83.7131C20.4973 84.1318 20.7326 84.6998 20.7326 85.292C20.7326 85.8842 20.4973 86.4521 20.0786 86.8709C19.6598 87.2896 19.0919 87.5249 18.4997 87.5249Z" fill="#B3404A"/>
<path d="M141.236 22.7697H76.5122C75.92 22.7697 75.352 22.5345 74.9333 22.1157C74.5145 21.697 74.2793 21.129 74.2793 20.5368C74.2793 19.9446 74.5145 19.3767 74.9333 18.958C75.352 18.5392 75.92 18.304 76.5122 18.304H141.236C141.828 18.304 142.396 18.5392 142.814 18.958C143.233 19.3767 143.468 19.9446 143.468 20.5368C143.468 21.129 143.233 21.697 142.814 22.1157C142.396 22.5345 141.828 22.7697 141.236 22.7697Z" fill="#B3404A"/>
<path d="M114.471 62.962C114.178 62.9621 113.888 62.9044 113.617 62.7922C113.346 62.68 113.099 62.5155 112.892 62.3082C112.685 62.1008 112.52 61.8546 112.408 61.5837C112.296 61.3128 112.238 61.0224 112.238 60.7291V11.6055C112.238 11.0133 112.474 10.4453 112.892 10.0266C113.311 9.60781 113.879 9.37256 114.471 9.37256C115.063 9.37256 115.631 9.60781 116.05 10.0266C116.469 10.4453 116.704 11.0133 116.704 11.6055V60.7291C116.704 61.0224 116.646 61.3128 116.534 61.5837C116.422 61.8546 116.258 62.1008 116.05 62.3082C115.843 62.5155 115.597 62.68 115.326 62.7922C115.055 62.9044 114.764 62.9621 114.471 62.962Z" fill="#B3404A"/>
<path d="M46.3358 65.195C45.1865 65.1972 44.0483 64.9715 42.9868 64.531C41.9253 64.0904 40.9617 63.4438 40.1517 62.6285C38.1783 60.642 36.2769 58.5661 34.4976 56.4575C31.1923 52.5347 28.1807 48.3734 25.4875 44.0076C25.3322 43.7582 25.2278 43.4806 25.18 43.1907C25.1323 42.9008 25.1423 42.6043 25.2094 42.3183C25.2765 42.0322 25.3994 41.7623 25.571 41.5238C25.7427 41.2854 25.9597 41.0832 26.2096 40.9288C26.4596 40.7744 26.7376 40.6709 27.0276 40.6241C27.3177 40.5774 27.6141 40.5884 27.8999 40.6564C28.1857 40.7245 28.4553 40.8483 28.6931 41.0208C28.931 41.1932 29.1325 41.4109 29.286 41.6614C31.8652 45.8402 34.7485 49.8236 37.9123 53.5793C39.611 55.5952 41.4317 57.5795 43.3179 59.4788C43.897 60.0615 44.6315 60.4653 45.4339 60.6418C46.2362 60.8183 47.0724 60.7601 47.8426 60.4742C50.5077 59.5654 53.3989 59.5666 56.0633 60.4775C56.8817 60.73 57.7556 60.7408 58.5799 60.5085C59.4042 60.2762 60.1439 59.8107 60.7101 59.1681C62.4785 57.3124 64.2142 55.3717 65.8693 53.4016C69.0203 49.6438 71.9501 45.7059 74.6438 41.6078C74.9698 41.1144 75.4782 40.7703 76.0575 40.6512C76.6368 40.532 77.2398 40.6475 77.734 40.9723C78.2283 41.2971 78.5736 41.8047 78.6941 42.3837C78.8146 42.9627 78.7006 43.5659 78.377 44.061C75.5871 48.3047 72.5525 52.3824 69.2884 56.2732C67.5745 58.3142 65.7755 60.3247 63.9417 62.249C62.7909 63.5135 61.299 64.4181 59.6458 64.854C57.9926 65.2898 56.2487 65.2382 54.6241 64.7054C52.8969 64.1076 51.0194 64.105 49.2905 64.6978C48.3399 65.0259 47.3414 65.1939 46.3358 65.195Z" fill="#B3404A"/>
<path d="M96.4277 143.348L47.4807 143.324C46.8888 143.323 46.3214 143.088 45.9031 142.669C45.4848 142.25 45.2499 141.683 45.25 141.091V125.484C45.2498 125.191 45.3075 124.901 45.4196 124.63C45.5318 124.359 45.6962 124.113 45.9036 123.905C46.111 123.698 46.3572 123.533 46.6282 123.421C46.8992 123.309 47.1896 123.251 47.4829 123.252H87.675C88.2672 123.252 88.8351 123.487 89.2539 123.906C89.6726 124.324 89.9079 124.892 89.9079 125.484C89.9079 126.077 89.6726 126.645 89.2539 127.063C88.8351 127.482 88.2672 127.717 87.675 127.717H49.7158V138.86L96.4277 138.882C97.0642 138.884 97.6755 138.633 98.1276 138.185C98.5797 137.737 98.8357 137.128 98.8394 136.492V123.965C98.804 121.483 98.4872 119.013 97.8952 116.603C97.827 116.318 97.8157 116.022 97.8619 115.732C97.9081 115.443 98.0109 115.165 98.1644 114.915C98.3178 114.665 98.519 114.448 98.7565 114.276C98.9939 114.104 99.2629 113.98 99.5481 113.912C99.8333 113.844 100.129 113.833 100.419 113.879C100.708 113.925 100.986 114.028 101.236 114.181C101.486 114.335 101.703 114.536 101.875 114.773C102.047 115.011 102.171 115.28 102.239 115.565C102.914 118.315 103.272 121.133 103.305 123.965V136.492C103.3 138.312 102.573 140.057 101.284 141.342C99.9948 142.627 98.2482 143.349 96.4277 143.348Z" fill="#B3404A"/>
<path d="M81.5769 94.1342C81.2144 94.1339 80.8575 94.0456 80.5367 93.8769C75.184 91.0904 69.222 89.6801 63.1881 89.773C62.8939 89.785 62.6001 89.7386 62.3238 89.6365C62.0476 89.5345 61.7942 89.3788 61.5784 89.1784C61.3626 88.978 61.1886 88.7368 61.0664 88.4688C60.9442 88.2009 60.8763 87.9114 60.8665 87.617C60.8567 87.3226 60.9052 87.0293 61.0094 86.7538C61.1135 86.4783 61.2711 86.2261 61.4732 86.0118C61.6752 85.7975 61.9176 85.6253 62.1865 85.5051C62.4554 85.385 62.7454 85.3192 63.0398 85.3116C69.8524 85.1664 76.5903 86.7541 82.6213 89.9257C83.0628 90.1585 83.4136 90.5326 83.6177 90.9881C83.8217 91.4437 83.8673 91.9544 83.7471 92.4389C83.6268 92.9234 83.3478 93.3536 82.9544 93.6609C82.561 93.9682 82.076 94.1348 81.5769 94.1342Z" fill="#B3404A"/>
<path d="M25.2163 143.347C24.0152 143.346 22.8636 142.869 22.0148 142.019C21.1659 141.169 20.6892 140.017 20.6895 138.816V127.782C20.6907 126.581 21.1685 125.429 22.018 124.58C22.8674 123.73 24.0193 123.252 25.2206 123.251H36.9739C38.5761 123.256 40.1118 123.892 41.2478 125.022C41.5444 125.317 41.9457 125.483 42.3642 125.484H47.4842C48.0764 125.484 48.6444 125.719 49.0631 126.138C49.4819 126.557 49.7171 127.125 49.7171 127.717C49.7171 128.309 49.4819 128.877 49.0631 129.296C48.6444 129.715 48.0764 129.95 47.4842 129.95H42.3642C40.762 129.945 39.2263 129.309 38.0903 128.179C37.7937 127.884 37.3924 127.718 36.9739 127.717H25.2206L25.1552 138.816L47.4819 138.862C48.0741 138.862 48.6444 139.097 49.0634 139.515C49.4824 139.934 49.7179 140.501 49.7182 141.094C49.7185 141.686 49.4835 142.254 49.065 142.673C48.6464 143.092 48.0786 143.327 47.4864 143.328L25.225 143.347H25.2163Z" fill="#B3404A"/>
<path d="M141.237 13.8383H76.52C75.9278 13.8383 75.3599 13.6031 74.9411 13.1843C74.5224 12.7656 74.2871 12.1977 74.2871 11.6055C74.2871 11.0133 74.5224 10.4453 74.9411 10.0266C75.3599 9.60781 75.9278 9.37256 76.52 9.37256H141.237C141.829 9.37256 142.397 9.60781 142.816 10.0266C143.234 10.4453 143.47 11.0133 143.47 11.6055C143.47 12.1977 143.234 12.7656 142.816 13.1843C142.397 13.6031 141.829 13.8383 141.237 13.8383Z" fill="#B3404A"/>
</g>
<defs>
<clipPath id="clip0_389_3784">
<rect width="142.905" height="142.905" fill="white" transform="translate(0.578125 0.442139)"/>
</clipPath>
</defs>
</svg>
