<svg width="144" height="144" viewBox="0 0 144 144" fill="none" xmlns="http://www.w3.org/2000/svg">
<path fill-rule="evenodd" clip-rule="evenodd" d="M72.3335 54.9572C75.3265 54.9572 78.2086 54.4849 80.9118 53.6141V123.935H63.755V53.6141C66.4585 54.4849 69.3403 54.9572 72.3333 54.9572H72.3335ZM90.0703 128.684H54.1497C49.656 128.684 45.6862 132.371 45.9787 136.855L46.202 140.277H98.4645L98.2412 136.855C97.9487 132.37 94.5639 128.684 90.0703 128.684ZM44.8126 31.9355C44.5276 30.3342 44.3786 28.6855 44.3786 27.0022C44.3786 25.3189 44.5276 23.6702 44.8126 22.0689H8.88447C6.17123 22.0689 3.95117 24.2887 3.95117 27.0022C3.95117 29.7157 6.17123 31.9355 8.88447 31.9355H44.8126ZM135.783 22.0689H99.8545C100.14 23.6702 100.289 25.3189 100.289 27.0022C100.289 28.6855 100.139 30.3342 99.8545 31.9355H135.783C138.496 31.9355 140.716 29.7157 140.716 27.0022C140.716 24.2887 138.496 22.0689 135.783 22.0689ZM48.8438 27.0022C48.8438 14.0645 59.3959 3.51245 72.3335 3.51245C85.2712 3.51245 95.8233 14.0645 95.8233 27.0022C95.8233 39.9399 85.2712 50.492 72.3335 50.492C59.3959 50.492 48.8438 39.9399 48.8438 27.0022ZM62.638 36.6977C61.7661 35.8258 60.3524 35.8258 59.4807 36.6977L58.3721 37.8063C57.5001 38.6783 57.5001 40.092 58.3721 40.9637C59.244 41.8356 60.6577 41.8356 61.5294 40.9637L62.638 39.855C63.51 38.9831 63.51 37.5694 62.638 36.6977ZM74.5664 42.9465C74.5664 41.7134 73.5667 40.7136 72.3335 40.7136C71.1004 40.7136 70.1006 41.7134 70.1006 42.9465V44.5142C70.1006 45.7474 71.1004 46.7471 72.3335 46.7471C73.5667 46.7471 74.5664 45.7474 74.5664 44.5142V42.9465ZM88.2775 24.7696C87.0444 24.7696 86.0446 25.7694 86.0446 27.0025C86.0446 28.2356 87.0444 29.2354 88.2775 29.2354H89.8453C91.0784 29.2354 92.0782 28.2356 92.0782 27.0025C92.0782 25.7694 91.0784 24.7696 89.8453 24.7696H88.2775ZM82.029 17.307C82.901 18.1789 84.3147 18.1789 85.1864 17.307L86.295 16.1984C87.1669 15.3264 87.1669 13.9127 86.295 13.041C85.423 12.1691 84.0093 12.1691 83.1377 13.041L82.029 14.1497C81.1571 15.0216 81.1571 16.4353 82.029 17.307ZM82.029 39.855L83.1377 40.9637C84.0096 41.8356 85.4233 41.8356 86.295 40.9637C87.1669 40.0917 87.1669 38.678 86.295 37.8063L85.1864 36.6977C84.3144 35.8258 82.9007 35.8258 82.029 36.6977C81.1571 37.5697 81.1571 38.9834 82.029 39.855ZM70.1009 11.0582C70.1009 12.2914 71.1007 13.2911 72.3338 13.2911C73.5669 13.2911 74.5667 12.2914 74.5667 11.0582V9.49047C74.5667 8.25735 73.5669 7.25757 72.3338 7.25757C71.1007 7.25757 70.1009 8.25735 70.1009 9.49047V11.0582ZM65.31 34.0258C66.1819 34.8977 67.5956 34.8977 68.4673 34.0258L71.667 30.826C71.8836 30.8634 72.1061 30.8833 72.3335 30.8833C74.4771 30.8833 76.2149 29.1455 76.2149 27.0019C76.2149 25.6898 75.5637 24.5298 74.5664 23.8273V17.0924C74.5664 15.8592 73.5667 14.8595 72.3335 14.8595C71.1004 14.8595 70.1006 15.8592 70.1006 17.0924V23.8273C69.1037 24.5298 68.4525 25.6898 68.4525 27.0019C68.4525 27.2291 68.4723 27.4519 68.5097 27.6685L65.31 30.8682C64.438 31.7401 64.438 33.1541 65.31 34.0258ZM58.3724 16.1981L59.481 17.3067C60.353 18.1787 61.7667 18.1787 62.6383 17.3067C63.5103 16.4348 63.5103 15.0211 62.6383 14.1494L61.5297 13.0408C60.6577 12.1688 59.244 12.1688 58.3724 13.0408C57.5004 13.9127 57.5004 15.3264 58.3724 16.1981ZM54.8221 29.2348H56.3898C57.623 29.2348 58.6227 28.2351 58.6227 27.0019C58.6227 25.7688 57.623 24.769 56.3898 24.769H54.8221C53.589 24.769 52.5892 25.7688 52.5892 27.0019C52.5892 28.2351 53.589 29.2348 54.8221 29.2348ZM137.369 85.0332C137.369 96.0718 128.366 105.075 117.327 105.075C106.289 105.075 97.2858 96.0718 97.2858 85.0332C97.2858 73.9946 106.289 64.9916 117.327 64.9916C128.366 64.9916 137.369 73.9946 137.369 85.0332ZM125.033 87.0123C124.738 86.4184 124.326 85.8624 123.795 85.3728C123.234 84.8559 122.562 84.4177 121.817 84.0482C121.064 83.6745 120.246 83.3738 119.404 83.1346L119.404 83.1369L119.396 83.1346C118.842 82.9772 118.31 82.8514 117.767 82.723C116.426 82.4059 115.001 82.0684 114.283 81.5116C114.215 81.4589 114.149 81.4011 114.084 81.3391C113.793 81.06 113.646 80.7711 113.628 80.5074C113.609 80.2481 113.705 79.9715 113.902 79.718C113.935 79.6751 113.976 79.6279 114.025 79.5774C114.169 79.4275 114.361 79.2902 114.589 79.1671C115.465 78.6951 116.698 78.5126 117.921 78.6183C119.08 78.7185 120.145 79.0663 120.761 79.6572C120.884 79.775 120.984 79.902 121.057 80.0368C121.639 81.1206 122.991 81.5267 124.074 80.9439C125.158 80.3611 125.564 79.0099 124.982 77.9261C124.684 77.3741 124.301 76.8814 123.848 76.4474C122.735 75.3781 121.199 74.6801 119.561 74.3502V72.7827C119.561 71.5496 118.561 70.5498 117.328 70.5498C116.095 70.5498 115.095 71.5496 115.095 72.7827V74.3362C114.155 74.519 113.261 74.821 112.478 75.2425C111.854 75.5788 111.291 75.9941 110.815 76.4901C110.663 76.6487 110.517 76.8181 110.378 76.997C109.503 78.1249 109.086 79.4579 109.179 80.8041C109.273 82.1458 109.862 83.4598 110.996 84.5492C111.168 84.7136 111.356 84.876 111.562 85.0357C113.05 86.1901 114.959 86.6417 116.756 87.0668C117.27 87.1885 117.774 87.3076 118.184 87.4238L118.184 87.426C118.801 87.6015 119.369 87.8061 119.846 88.0428C120.218 88.227 120.536 88.43 120.777 88.6524C120.888 88.7543 120.975 88.8726 121.039 89.001C121.155 89.2338 121.189 89.4984 121.147 89.7571C121.102 90.0418 120.965 90.3246 120.744 90.5649C120.605 90.715 120.426 90.8496 120.207 90.9587C119.085 91.5169 117.427 91.6272 115.902 91.3073C114.672 91.0491 113.619 90.5392 113.218 89.8063C112.63 88.7272 111.279 88.3289 110.2 88.9167C109.121 89.5045 108.723 90.8557 109.311 91.9345C110.398 93.9206 112.591 95.1638 114.995 95.6684L115.095 95.6888V97.2834C115.095 98.5165 116.095 99.5163 117.328 99.5163C118.561 99.5163 119.561 98.5165 119.561 97.2834V95.7714C120.513 95.6146 121.413 95.3422 122.195 94.9534C122.907 94.5992 123.519 94.1297 124.023 93.5826C124.846 92.69 125.361 91.5934 125.543 90.4546C125.73 89.2905 125.569 88.0875 125.033 87.0118L125.033 87.0123ZM47.3818 64.9916H37.5621V79.6178C37.5621 81.1552 36.3083 82.409 34.771 82.409H19.9091C18.3718 82.409 17.118 81.1552 17.118 79.6178V64.9916H7.29828V105.075H47.3815L47.3818 64.9916ZM21.5835 77.9435H33.0966V64.9916H21.5835V77.9435ZM104.063 64.3515C105.161 64.9056 106.501 64.4643 107.055 63.366L117.327 43.0397L127.695 63.5524C128.248 64.6508 129.588 65.092 130.686 64.538C131.785 63.984 132.226 62.6445 131.672 61.5462L119.321 37.1094L119.318 37.1033L119.316 37.0985C119.109 36.6874 118.773 36.3363 118.331 36.113C117.232 35.5592 115.893 36.0002 115.339 37.0985L103.077 61.3595C102.523 62.4578 102.965 63.7975 104.063 64.3515ZM41.2801 61.9383C42.3639 61.3603 42.7739 60.013 42.1959 58.9292L29.3023 34.8307C28.7243 33.7469 27.377 33.3369 26.2932 33.915C25.884 34.1332 25.5709 34.4612 25.3708 34.8433L12.4842 58.9292C11.9061 60.013 12.3161 61.3603 13.3999 61.9383C14.4837 62.5164 15.831 62.1064 16.409 61.0226L27.3402 40.5922L38.2713 61.0226C38.8493 62.1064 40.1963 62.5164 41.2801 61.9383Z" fill="#B3404A"/>
</svg>
