<svg width="24" height="24" viewBox="0 0 24 24" fill="none" xmlns="http://www.w3.org/2000/svg">
<g clip-path="url(#clip0_392_406)">
<path d="M0.0498341 6.05255C0.338042 7.24017 1.49327 9.49173 4.8106 10.2729C4.6923 11.4129 4.98234 12.2862 4.98234 12.2862C6.00975 15.1353 7.54361 16.3385 8.07407 19.6575C8.14402 20.0951 8.31943 20.5195 8.56571 20.9103C8.7415 21.9282 9.23204 23.0057 10.1545 23.5384C10.6725 23.8374 11.4004 24 12.1185 24C12.751 24 13.3759 23.874 13.8437 23.6045C14.7173 23.1013 15.2943 21.9776 15.4871 20.959C15.7171 20.5714 15.8731 20.0986 15.926 19.6575C16.2994 16.5515 17.9902 15.1353 19.0177 12.2862C19.0177 12.2862 19.3078 11.4129 19.1895 10.2729C22.507 9.49181 23.662 7.24017 23.9502 6.05255C24.1493 5.23259 23.7085 5.12585 23.3971 5.05443C22.8545 4.93019 22.3521 4.875 21.8874 4.875C19.6564 4.875 18.299 6.14548 17.5692 7.15961C17.4884 7.08883 17.4046 7.01898 17.3163 6.95023L17.3538 6.80191C17.4822 6.2949 17.459 5.85223 17.3022 5.51155C17.8422 4.41028 18.7586 3.13567 20.3048 1.81914C21.0218 1.20859 21.4855 0.501171 21.3523 0.246471C21.274 0.0963135 20.9442 0 20.5036 0C20.1962 0 19.8348 0.0469666 19.4673 0.155262C17.4093 0.761627 15.4763 1.99722 14.2405 4.55586C14.2407 4.55586 14.2407 4.55586 14.2409 4.55576C14.1347 4.58651 14.0321 4.62862 13.9356 4.68521C13.5986 4.88268 13.353 5.22839 13.2441 5.6586L13.1576 5.99991H11.4049L11.3185 5.65851C11.2096 5.22839 10.964 4.88268 10.6269 4.68521C10.5304 4.62862 10.4281 4.58661 10.3221 4.55586C9.0863 1.99722 7.15324 0.761627 5.09532 0.155262C4.72781 0.0469666 4.36637 0 4.05894 0C3.61839 0 3.28861 0.0963135 3.21025 0.246471C3.07712 0.501171 3.54075 1.20859 4.25779 1.81914C5.80394 3.13567 6.72038 4.41028 7.26036 5.51155C7.12358 5.80919 7.08842 6.18448 7.16734 6.61276C6.89323 6.78671 6.64769 6.96964 6.43089 7.15961C5.70085 6.14548 4.34367 4.875 2.11271 4.875C1.64799 4.875 1.14555 4.93019 0.602996 5.05443C0.291545 5.12585 -0.14919 5.23259 0.0498341 6.05255ZM13.4695 22.9547C13.1435 23.1423 12.6512 23.25 12.1185 23.25C11.5152 23.25 10.9212 23.1149 10.5295 22.8889C10.2353 22.7192 10.0097 22.4755 9.83555 22.2089C10.3585 22.5601 10.9457 22.7944 11.5269 22.8545C11.6598 22.8682 11.7939 22.875 11.9284 22.875C11.985 22.875 12.0416 22.8737 12.0984 22.8713C12.8224 22.8415 13.5524 22.6199 14.1812 22.2391C13.9829 22.5405 13.7443 22.7963 13.4695 22.9547ZM11.7247 20.0625H12.2987L12.0207 20.4012L11.7247 20.0625ZM17.6624 12.1875C17.3731 12.1875 17.1376 11.9772 17.1376 11.7188C17.1376 11.4603 17.3731 11.25 17.6624 11.25C17.9519 11.25 18.1875 11.4603 18.1875 11.7188C18.1875 11.9772 17.9519 12.1875 17.6624 12.1875ZM19.3429 9.4585C20.3189 7.32091 22.1461 6.56304 23.0838 6.30725C22.7608 7.14688 21.8332 8.75765 19.3429 9.4585ZM21.8874 5.625C22.1161 5.625 22.3528 5.64183 22.5947 5.67288C21.525 6.01968 19.8406 6.86032 18.8152 8.83787C18.6475 8.45443 18.4162 8.06863 18.1007 7.69711C18.7088 6.80831 19.8915 5.625 21.8874 5.625ZM16.0842 3.09064C17.0027 2.04172 18.1787 1.31679 19.6793 0.874683C19.8871 0.813446 20.1063 0.773151 20.3136 0.757427C20.1858 0.906727 20.0204 1.07619 19.8186 1.24813C18.2965 2.54424 17.3421 3.81345 16.7485 4.94265C16.7485 4.94265 16.7485 4.94274 16.7487 4.94274C16.6694 4.90355 16.5843 4.87078 16.4924 4.84607L15.0804 4.56107C15.3723 4.01248 15.707 3.52139 16.0842 3.09064ZM13.971 5.8427C14.0303 5.6087 14.1524 5.42752 14.3149 5.33241C14.4694 5.24184 14.6576 5.22538 14.8752 5.28398L16.3078 5.57317C16.7154 5.69 16.7304 6.11975 16.6529 6.50197C16.5617 6.44823 16.4702 6.39459 16.3728 6.34286C15.9775 6.13293 15.2752 5.99991 14.8276 5.99991H13.9313L13.971 5.8427ZM9.68742 5.28398C9.90439 5.22538 10.0928 5.24176 10.2477 5.33241C10.4101 5.42752 10.5323 5.6087 10.5916 5.84261L10.6315 5.99991H9.17233C8.80705 5.99991 8.27421 6.08962 7.87486 6.23638C7.86001 5.93947 7.94059 5.66318 8.2548 5.57317L9.66379 5.28945L9.68742 5.28398ZM4.74394 1.24813C4.54216 1.07619 4.37681 0.906727 4.24899 0.757427C4.45628 0.773151 4.67544 0.813446 4.88327 0.874683C6.38383 1.31679 7.55991 2.04172 8.47837 3.09064C8.85557 3.52139 9.19028 4.01248 9.48216 4.56107L8.09367 4.84058L8.07023 4.84607C7.97831 4.87078 7.89317 4.90355 7.81387 4.94274C7.81407 4.94274 7.81407 4.94265 7.81407 4.94265C7.22044 3.81345 6.26608 2.54424 4.74394 1.24813ZM7.97904 7.00524C8.23063 6.87157 8.79954 6.74991 9.17233 6.74991H14.8276C15.2005 6.74991 15.7694 6.87157 16.0208 7.00515C18.0359 8.07605 18.458 9.66851 18.4715 10.7776C18.2513 10.6043 17.9693 10.5 17.6624 10.5C17.5961 10.5 17.5317 10.5063 17.4681 10.5157C17.3974 10.4949 17.3198 10.4942 17.2442 10.5191C17.1761 10.5417 15.5713 11.0958 15.1943 13.0541C15.1551 13.2574 15.2882 13.454 15.4917 13.4932C15.5157 13.4978 15.5395 13.5 15.5629 13.5C15.7391 13.5 15.8962 13.3753 15.9308 13.1959C16.0254 12.704 16.2173 12.3277 16.4343 12.0412C16.5828 12.557 17.0763 12.9375 17.6624 12.9375C17.764 12.9375 17.8623 12.9249 17.9572 12.9033C17.6479 13.5901 17.3028 14.205 16.9651 14.8039C16.2083 16.1464 15.4258 17.5347 15.1813 19.5681C15.1346 19.9581 14.9859 20.3703 14.7834 20.6708C14.2737 21.4281 13.3515 21.9651 12.375 22.0939V21.1518C12.375 21.1518 13.5 19.84 13.5 19.6875C13.5 19.4804 13.3321 19.3125 13.125 19.3125H10.875C10.6679 19.3125 10.5 19.4804 10.5 19.6875C10.5 19.8402 11.625 21.0881 11.625 21.0881V22.1096C11.6181 22.1089 11.6107 22.1092 11.6038 22.1085C10.3382 21.9778 9.00865 20.7532 8.81473 19.5392C8.4727 17.3994 7.72306 16.0562 6.99814 14.7572C6.64164 14.1182 6.27598 13.4603 5.94894 12.6923C6.16209 12.8456 6.42613 12.9375 6.71269 12.9375C7.29825 12.9375 7.79173 12.5574 7.9404 12.0422C8.15774 12.3289 8.34982 12.7053 8.4443 13.1959C8.47892 13.3753 8.63603 13.5 8.81216 13.5C8.8356 13.5 8.85942 13.4978 8.88339 13.4932C9.08683 13.454 9.21995 13.2574 9.18077 13.0541C8.80374 11.0958 7.199 10.5417 7.1309 10.5191C7.05511 10.494 6.97746 10.4947 6.90661 10.5157C6.84324 10.5063 6.77878 10.5 6.71269 10.5C6.19395 10.5 5.74734 10.7981 5.54831 11.2241C5.52396 10.9318 5.52103 10.5809 5.57377 10.2009C5.76438 8.82724 6.57371 7.75212 7.97904 7.00524ZM6.18754 11.7188C6.18754 11.4603 6.42319 11.25 6.71269 11.25C7.00199 11.25 7.23747 11.4603 7.23747 11.7188C7.23747 11.9772 7.00199 12.1875 6.71269 12.1875C6.42319 12.1875 6.18754 11.9772 6.18754 11.7188ZM2.11271 5.625C4.10893 5.625 5.29196 6.80878 5.89952 7.69702C5.58404 8.06853 5.35276 8.45443 5.18484 8.83787C4.15946 6.86032 2.47508 6.01968 1.40536 5.67288C1.64726 5.64183 1.88401 5.625 2.11271 5.625ZM4.65604 9.45813C2.17239 8.75858 1.24333 7.15393 0.918486 6.31292C1.85563 6.57631 3.68576 7.34517 4.65604 9.45813Z" fill="#ED0213"/>
</g>
<defs>
<clipPath id="clip0_392_406">
<rect width="24" height="24" fill="white"/>
</clipPath>
</defs>
</svg>
