<svg width="81" height="80" viewBox="0 0 81 80" fill="none" xmlns="http://www.w3.org/2000/svg">
<path d="M52.1445 40H58.3945V45H52.1445V40Z" fill="#F4B2B0"/>
<path d="M64.6445 40H70.8945V45H64.6445V40Z" fill="#F4B2B0"/>
<path d="M54.6445 70H27.1445C23.6933 70 20.8945 67.2013 20.8945 63.75C20.8945 60.2988 23.6933 57.5 27.1445 57.5H54.6445C58.0958 57.5 60.8945 60.2988 60.8945 63.75C60.8945 67.2013 58.0958 70 54.6445 70Z" fill="#F4B2B0"/>
<path d="M54.6449 20.625V21.4263C52.1349 22.0763 50.3799 24.6037 51.0311 27.4362C51.4449 29.235 52.9036 30.6962 54.7024 31.1112C57.9824 31.87 60.8949 29.4 60.8949 26.25V20.625C60.8949 18.8987 59.4961 17.5 57.7699 17.5C56.0436 17.5 54.6449 18.8987 54.6449 20.625Z" fill="#F4B2B0"/>
<path d="M58.3945 37.5H64.6445V45H58.3945V37.5Z" fill="#F4B2B0"/>
<path d="M39.6449 20.625V21.4263C37.1349 22.0763 35.3799 24.6037 36.0311 27.4362C36.4449 29.235 37.9036 30.6962 39.7024 31.1112C42.9824 31.87 45.8949 29.4 45.8949 26.25V20.625C45.8949 18.8987 44.4961 17.5 42.7699 17.5C41.0436 17.5 39.6449 18.8987 39.6449 20.625Z" fill="#F4B2B0"/>
<path d="M24.6449 20.625V21.4263C22.1349 22.0763 20.3799 24.6037 21.0311 27.4362C21.4449 29.235 22.9036 30.6962 24.7024 31.1112C27.9824 31.87 30.8949 29.4 30.8949 26.25V20.625C30.8949 18.8987 29.4961 17.5 27.7699 17.5C26.0436 17.5 24.6449 18.8987 24.6449 20.625Z" fill="#F4B2B0"/>
<path d="M10.8945 40H17.1445V45H10.8945V40Z" fill="#F4B2B0"/>
<path d="M23.3945 40H29.6445V45H23.3945V40Z" fill="#F4B2B0"/>
<path d="M17.1445 37.5H23.3945V45H17.1445V37.5Z" fill="#F4B2B0"/>
<path d="M78.3945 43.75H77.1445V2.5C77.1445 1.81 76.5858 1.25 75.8945 1.25H70.8945C70.2033 1.25 69.6445 1.81 69.6445 2.5V6.25H12.1445V2.5C12.1445 1.81 11.5858 1.25 10.8945 1.25H5.89453C5.20328 1.25 4.64453 1.81 4.64453 2.5V43.75H3.39453C2.70328 43.75 2.14453 44.31 2.14453 45V50C2.14453 50.69 2.70328 51.25 3.39453 51.25H4.64453V77.5C4.64453 78.19 5.20328 78.75 5.89453 78.75H75.8945C76.5858 78.75 77.1445 78.19 77.1445 77.5V51.25H78.3945C79.0858 51.25 79.6445 50.69 79.6445 50V45C79.6445 44.31 79.0858 43.75 78.3945 43.75ZM74.6445 3.75V43.75H72.1445V3.75H74.6445ZM15.8945 43.75H12.1445V41.25H15.8945V43.75ZM22.1445 43.75H18.3945V38.75H22.1445V43.75ZM24.6445 41.25H28.3945V43.75H24.6445V41.25ZM29.6445 38.75H24.6445V37.5C24.6445 36.81 24.0858 36.25 23.3945 36.25H17.1445C16.4533 36.25 15.8945 36.81 15.8945 37.5V38.75H12.1445V13.75H27.1445V16.3125C25.0583 16.615 23.4383 18.3787 23.3958 20.5387C20.662 21.7225 19.1183 24.6975 19.8133 27.7175C20.337 29.995 22.1458 31.8062 24.4233 32.33C24.912 32.4425 25.4033 32.4988 25.8895 32.4988C27.3008 32.4988 28.6683 32.0325 29.7833 31.145C31.2845 29.95 32.1445 28.1663 32.1445 26.25V20.625C32.1445 18.8862 31.117 17.3937 29.6445 16.6887V13.75H42.1445V16.3125C40.0583 16.615 38.4383 18.3787 38.3958 20.5387C35.662 21.7225 34.1183 24.6975 34.8133 27.7175C35.337 29.995 37.1458 31.8062 39.4233 32.33C39.912 32.4425 40.4033 32.4988 40.8895 32.4988C42.3008 32.4988 43.6683 32.0325 44.7833 31.145C46.2845 29.95 47.1445 28.1663 47.1445 26.25V20.625C47.1445 18.8862 46.117 17.3937 44.6445 16.6887V13.75H57.1445V16.3125C55.0583 16.615 53.4383 18.3787 53.3958 20.5387C50.662 21.7225 49.1183 24.6975 49.8133 27.7175C50.337 29.995 52.1458 31.8062 54.4233 32.33C54.912 32.4425 55.4033 32.4988 55.8895 32.4988C57.3008 32.4988 58.6683 32.0325 59.7833 31.145C61.2845 29.95 62.1445 28.1663 62.1445 26.25V20.625C62.1445 18.8862 61.117 17.3937 59.6445 16.6887V13.75H69.6445V38.75H65.8945V37.5C65.8945 36.81 65.3358 36.25 64.6445 36.25H58.3945C57.7033 36.25 57.1445 36.81 57.1445 37.5V38.75H52.1445C51.4533 38.75 50.8945 39.31 50.8945 40V43.75H30.8945V40C30.8945 39.31 30.3358 38.75 29.6445 38.75ZM29.6445 20.625V26.25C29.6445 27.4 29.1283 28.47 28.2258 29.1875C27.3108 29.9163 26.1545 30.1625 24.9833 29.8938C23.6545 29.5875 22.5558 28.4875 22.2483 27.1562C21.7295 24.9013 23.217 23.0875 24.957 22.6375C25.5083 22.495 25.8945 21.9963 25.8945 21.4275V20.625C25.8945 19.5912 26.7358 18.75 27.7695 18.75C28.8033 18.75 29.6445 19.5912 29.6445 20.625ZM44.6445 20.625V26.25C44.6445 27.4 44.1283 28.47 43.2258 29.1875C42.3108 29.9163 41.1545 30.1625 39.9833 29.8938C38.6545 29.5875 37.5558 28.4875 37.2483 27.1562C36.7295 24.9013 38.217 23.0875 39.957 22.6375C40.5083 22.495 40.8945 21.9963 40.8945 21.4275V20.625C40.8945 19.5912 41.7358 18.75 42.7695 18.75C43.8033 18.75 44.6445 19.5912 44.6445 20.625ZM59.6445 20.625V26.25C59.6445 27.4 59.1283 28.47 58.2258 29.1875C57.3108 29.9163 56.1545 30.1625 54.9833 29.8938C53.6545 29.5875 52.5558 28.4875 52.2483 27.1562C51.7295 24.9013 53.217 23.0875 54.957 22.6375C55.5083 22.495 55.8945 21.9963 55.8945 21.4275V20.625C55.8945 19.5912 56.7358 18.75 57.7695 18.75C58.8033 18.75 59.6445 19.5912 59.6445 20.625ZM53.3945 41.25H57.1445V43.75H53.3945V41.25ZM59.6445 38.75H63.3945V43.75H59.6445V38.75ZM65.8945 41.25H69.6445V43.75H65.8945V41.25ZM69.6445 8.75V11.25H12.1445V8.75H69.6445ZM7.14453 3.75H9.64453V43.75H7.14453V3.75ZM74.6445 76.25H7.14453V51.25H74.6445V76.25ZM77.1445 48.75H4.64453V46.25H77.1445V48.75Z" fill="#B3404A"/>
<path d="M27.1445 71.25H54.6445C58.7808 71.25 62.1445 67.8862 62.1445 63.75C62.1445 59.6137 58.7808 56.25 54.6445 56.25H27.1445C23.0083 56.25 19.6445 59.6137 19.6445 63.75C19.6445 67.8862 23.0083 71.25 27.1445 71.25ZM27.1445 58.75H54.6445C57.402 58.75 59.6445 60.9925 59.6445 63.75C59.6445 66.5075 57.402 68.75 54.6445 68.75H27.1445C24.387 68.75 22.1445 66.5075 22.1445 63.75C22.1445 60.9925 24.387 58.75 27.1445 58.75Z" fill="#B3404A"/>
<path d="M24.6445 25H27.1445V27.5H24.6445V25Z" fill="#B3404A"/>
<path d="M39.6445 25H42.1445V27.5H39.6445V25Z" fill="#B3404A"/>
<path d="M54.6445 25H57.1445V27.5H54.6445V25Z" fill="#B3404A"/>
<path d="M27.1426 62.5H49.6438V65H27.1426V62.5Z" fill="#B3404A"/>
<path d="M52.1445 62.5H54.6445V65H52.1445V62.5Z" fill="#B3404A"/>
</svg>
