<svg width="81" height="80" viewBox="0 0 81 80" fill="none" xmlns="http://www.w3.org/2000/svg">
<path fill-rule="evenodd" clip-rule="evenodd" d="M40.5605 33.3333C41.8738 33.3333 43.1741 33.0746 44.3874 32.5721C45.6006 32.0695 46.703 31.3329 47.6316 30.4044C48.5602 29.4758 49.2968 28.3734 49.7993 27.1601C50.3019 25.9469 50.5605 24.6465 50.5605 23.3333C50.5605 22.0201 50.3019 20.7197 49.7993 19.5065C49.2968 18.2932 48.5602 17.1908 47.6316 16.2622C46.703 15.3336 45.6006 14.597 44.3874 14.0945C43.1741 13.592 41.8738 13.3333 40.5605 13.3333C37.9084 13.3333 35.3648 14.3869 33.4895 16.2622C31.6141 18.1376 30.5605 20.6811 30.5605 23.3333C30.5605 25.9855 31.6141 28.529 33.4895 30.4044C35.3648 32.2797 37.9084 33.3333 40.5605 33.3333ZM40.5605 40C44.9808 40 49.2201 38.244 52.3457 35.1184C55.4713 31.9928 57.2272 27.7536 57.2272 23.3333C57.2272 18.913 55.4713 14.6738 52.3457 11.5482C49.2201 8.42257 44.9808 6.66663 40.5605 6.66663C36.1403 6.66663 31.901 8.42257 28.7754 11.5482C25.6498 14.6738 23.8939 18.913 23.8939 23.3333C23.8939 27.7536 25.6498 31.9928 28.7754 35.1184C31.901 38.244 36.1403 40 40.5605 40ZM16.0239 51.4933C19.8405 46.4333 25.5905 43.3333 32.9405 43.3333H48.1805C55.5305 43.3333 61.2805 46.4333 65.0972 51.4933C68.8339 56.45 70.5605 63.0533 70.5605 70C70.5605 70.884 70.2094 71.7319 69.5842 72.357C68.9591 72.9821 68.1113 73.3333 67.2272 73.3333C66.3432 73.3333 65.4953 72.9821 64.8702 72.357C64.2451 71.7319 63.8939 70.884 63.8939 70C63.8939 64.06 62.4072 59 59.7772 55.5066C57.2272 52.1266 53.4505 50 48.1772 50H32.9439C27.6705 50 23.8939 52.1266 21.3439 55.5066C18.7105 59 17.2272 64.06 17.2272 70C17.2272 70.884 16.876 71.7319 16.2509 72.357C15.6258 72.9821 14.7779 73.3333 13.8939 73.3333C13.0098 73.3333 12.162 72.9821 11.5369 72.357C10.9117 71.7319 10.5605 70.884 10.5605 70C10.5605 63.0533 12.2872 56.45 16.0239 51.4933Z" fill="#B3404A"/>
<path fill-rule="evenodd" clip-rule="evenodd" d="M10.5605 70C10.5605 69.1159 10.9117 68.2681 11.5369 67.6429C12.162 67.0178 13.0098 66.6666 13.8939 66.6666H67.1005C67.9846 66.6666 68.8325 67.0178 69.4576 67.6429C70.0827 68.2681 70.4339 69.1159 70.4339 70C70.4339 70.884 70.0827 71.7319 69.4576 72.357C68.8325 72.9821 67.9846 73.3333 67.1005 73.3333H13.8939C13.0098 73.3333 12.162 72.9821 11.5369 72.357C10.9117 71.7319 10.5605 70.884 10.5605 70Z" fill="#B3404A"/>
</svg>
