<svg width="81" height="80" viewBox="0 0 81 80" fill="none" xmlns="http://www.w3.org/2000/svg">
<g clip-path="url(#clip0_387_3439)">
<path d="M37.7246 71.25H1.47461C1.31043 71.2501 1.14784 71.2178 0.996144 71.155C0.844445 71.0923 0.706609 71.0002 0.590517 70.8841C0.474425 70.768 0.382355 70.6302 0.319569 70.4785C0.256784 70.3268 0.224516 70.1642 0.22461 70V12.3498C0.225724 11.3954 0.605356 10.4805 1.28023 9.80559C1.9551 9.13073 2.87009 8.7511 3.8245 8.75H35.376C36.3303 8.75117 37.2451 9.13085 37.9198 9.80574C38.5944 10.4806 38.9738 11.3956 38.9746 12.3498V70C38.9747 70.1642 38.9424 70.3268 38.8797 70.4785C38.8169 70.6302 38.7248 70.768 38.6087 70.8841C38.4926 71.0002 38.3548 71.0923 38.2031 71.155C38.0514 71.2178 37.8888 71.2501 37.7246 71.25ZM2.72461 68.75H36.4746V12.3498C36.4744 12.0584 36.3587 11.779 36.1527 11.5728C35.9468 11.3666 35.6674 11.2505 35.376 11.25H3.8245C3.53287 11.2502 3.25327 11.3662 3.04706 11.5724C2.84085 11.7786 2.72489 12.0582 2.72463 12.3498L2.72461 68.75Z" fill="#B3404A"/>
<path d="M78.9771 71.25H42.7246C42.5604 71.2501 42.3978 71.2178 42.2461 71.155C42.0944 71.0923 41.9566 71.0002 41.8405 70.8841C41.7244 70.768 41.6324 70.6302 41.5696 70.4785C41.5068 70.3268 41.4745 70.1642 41.4746 70V12.3498C41.4757 11.3954 41.8554 10.4805 42.5302 9.80559C43.2051 9.13073 44.1201 8.7511 45.0745 8.75H76.6272C77.5816 8.7511 78.4966 9.13073 79.1715 9.80559C79.8464 10.4805 80.226 11.3954 80.2271 12.3498V70C80.2272 70.1642 80.1949 70.3268 80.1321 70.4785C80.0694 70.6302 79.9773 70.768 79.8612 70.8841C79.7451 71.0002 79.6073 71.0923 79.4556 71.155C79.3039 71.2178 79.1413 71.2501 78.9771 71.25ZM43.9746 68.75H77.7271V12.3498C77.7269 12.0582 77.6109 11.7786 77.4047 11.5724C77.1985 11.3662 76.9188 11.2502 76.6272 11.25H45.0745C44.7829 11.2502 44.5033 11.3662 44.2971 11.5724C44.0908 11.7786 43.9749 12.0582 43.9746 12.3498L43.9746 68.75Z" fill="#B3404A"/>
<path d="M57.2974 38.7451C55.4199 38.7556 53.5608 38.3735 51.8396 37.6233C50.4943 37.0308 49.2711 36.1929 48.2324 35.1526C47.2825 34.2167 46.5269 33.1023 46.0091 31.8734C45.4912 30.6445 45.2213 29.3255 45.2148 27.992V27.9907C45.2383 25.4449 46.1793 22.993 47.865 21.0852C48.5282 20.3231 49.2769 19.6399 50.0964 19.0491C52.8907 17.1144 56.2362 16.1363 59.6326 16.261C63.9749 16.1707 68.207 17.6319 71.5686 20.3821C73.9456 22.3828 75.6146 25.0962 76.3281 28.1201C76.5493 29.0594 76.5174 30.0407 76.2356 30.9637C75.9539 31.8867 75.4323 32.7184 74.7241 33.374C74.5675 33.522 74.4033 33.6618 74.2322 33.7928C73.4948 34.341 72.6562 34.7377 71.7647 34.96C70.8732 35.1823 69.9465 35.2258 69.0381 35.0879C68.55 35.0218 68.0549 35.0271 67.5684 35.1038L67.3328 35.1465C66.9384 35.2529 66.5725 35.4451 66.261 35.7093C63.6903 37.6831 60.5385 38.7506 57.2974 38.7451ZM59.1334 18.7513C56.4304 18.7247 53.7855 19.5363 51.5626 21.0743C50.8982 21.5531 50.2908 22.1064 49.7523 22.7234C48.462 24.1772 47.7387 26.0471 47.7149 27.9908C47.7222 28.9972 47.9283 29.9923 48.3212 30.9188C48.7142 31.8454 49.2864 32.6851 50.0049 33.3899C50.8255 34.211 51.7922 34.8717 52.8552 35.3382C54.7983 36.1416 56.9193 36.4169 59.0031 36.1361C61.087 35.8552 63.0594 35.0283 64.7205 33.7391C65.3325 33.2364 66.0516 32.8806 66.8225 32.6991C66.9373 32.6746 67.0557 32.6539 67.1765 32.6356C67.905 32.5199 68.6466 32.512 69.3774 32.6124C70.5512 32.7952 71.7495 32.5065 72.7112 31.8092C72.8101 31.7335 72.9028 31.6529 73.0139 31.5504C73.4019 31.1949 73.688 30.7423 73.8427 30.2393C73.9974 29.7363 74.0151 29.2012 73.8941 28.6891C73.3004 26.1838 71.9147 23.9368 69.9426 22.2816C67.0301 19.9091 63.3634 18.6596 59.6082 18.7599C59.469 18.7549 59.3104 18.7513 59.1334 18.7513Z" fill="#B3404A"/>
<path d="M57.3071 35C55.9499 35.0087 54.6058 34.7343 53.3606 34.1944C52.4392 33.7912 51.6012 33.2195 50.8898 32.5086C50.2875 31.9194 49.8075 31.2172 49.4771 30.4422C49.1468 29.6671 48.9727 28.8345 48.9648 27.992C48.9891 26.3491 49.6035 24.7699 50.6958 23.5425C51.1714 22.9984 51.7075 22.5102 52.2937 22.0875C54.2866 20.7092 56.6565 19.9802 59.0795 20C59.226 20 59.5898 20.0122 59.5898 20.0122L59.8717 20.0074C63.237 19.9806 66.5078 21.1198 69.1283 23.2312C70.8979 24.7132 72.142 26.7266 72.6758 28.9722C72.6895 29.03 72.6989 29.0888 72.7038 29.148C72.7379 29.4243 72.7052 29.7049 72.6083 29.9659C72.5114 30.227 72.3533 30.461 72.1472 30.6482C72.1142 30.68 71.9884 30.7898 71.9507 30.8167C71.2533 31.3007 70.3977 31.5006 69.5581 31.3758C68.7007 31.2548 67.8299 31.2635 66.9751 31.4014C66.8432 31.4222 66.7004 31.4478 66.5649 31.4746C65.6072 31.6957 64.713 32.1338 63.9514 32.7552C62.042 34.2104 59.7078 34.999 57.3071 35ZM59.0796 22.5C57.1829 22.4789 55.3255 23.0418 53.7598 24.1125C53.3287 24.4229 52.9344 24.7813 52.5842 25.1806C51.8865 25.9534 51.4893 26.951 51.4648 27.9919C51.4735 28.5071 51.5838 29.0156 51.7893 29.4881C51.9947 29.9607 52.2914 30.3881 52.6623 30.7458C53.1562 31.2372 53.7374 31.6322 54.3762 31.9104C55.702 32.4139 57.1334 32.5748 58.5379 32.378C59.9424 32.1813 61.2745 31.6333 62.4109 30.7849C63.4759 29.9264 64.7245 29.3249 66.0596 29.0271C66.2317 28.9917 66.4063 28.9611 66.5784 28.9331C67.674 28.7573 68.7897 28.7454 69.8889 28.8977C69.9475 28.9063 70.0067 28.91 70.0659 28.9086C69.5802 27.435 68.6923 26.1264 67.5024 25.1306C65.3407 23.406 62.6505 22.4795 59.8853 22.5073L59.5618 22.5109C59.5044 22.5098 59.2017 22.5 59.0796 22.5Z" fill="#B3404A"/>
<path d="M50.6497 31.25C50.3343 31.2497 50.0306 31.1303 49.7995 30.9156C49.5685 30.7009 49.4271 30.4067 49.4038 30.0922C49.3805 29.7776 49.4769 29.4659 49.6738 29.2195C49.8707 28.973 50.1534 28.8101 50.4653 28.7634L58.0361 27.6269L60.292 20.9509C60.3434 20.794 60.4254 20.6488 60.5333 20.5237C60.6412 20.3987 60.7727 20.2963 60.9204 20.2224C61.0681 20.1485 61.2289 20.1046 61.3937 20.0932C61.5584 20.0818 61.7238 20.1032 61.8802 20.1561C62.0367 20.209 62.1811 20.2923 62.3051 20.4014C62.4291 20.5104 62.5303 20.6429 62.6028 20.7913C62.6754 20.9396 62.7178 21.1009 62.7276 21.2657C62.7374 21.4306 62.7145 21.5957 62.6602 21.7517L60.1602 29.1503C60.0864 29.3679 59.9543 29.561 59.7782 29.7085C59.602 29.856 59.3888 29.9522 59.1616 29.9866L50.8364 31.2366C50.7745 31.2452 50.7121 31.2497 50.6497 31.25Z" fill="#B3404A"/>
<path d="M61.4759 34.0637C61.2621 34.0641 61.0518 34.0095 60.8652 33.9052C60.6786 33.8009 60.5219 33.6503 60.4103 33.468L57.9103 29.4055C57.7364 29.1232 57.6818 28.7834 57.7585 28.4608C57.8352 28.1383 58.0369 27.8594 58.3192 27.6855C58.6015 27.5117 58.9413 27.4571 59.2639 27.5338C59.5864 27.6105 59.8653 27.8122 60.0392 28.0945L62.5392 32.1595C62.6554 32.3488 62.719 32.5656 62.7236 32.7877C62.7282 33.0098 62.6735 33.229 62.5652 33.423C62.4569 33.6169 62.2989 33.7785 62.1075 33.8911C61.916 34.0037 61.6981 34.0633 61.4759 34.0637Z" fill="#B3404A"/>
<path d="M57.3071 42.4951C55.4041 42.5054 53.5235 42.0842 51.8066 41.2634C50.4436 40.6083 49.22 39.696 48.2031 38.5767C46.3612 36.4342 45.3099 33.7249 45.2246 30.9009V27.8906C45.2246 27.5591 45.3563 27.2412 45.5907 27.0067C45.8251 26.7723 46.1431 26.6406 46.4746 26.6406C46.8061 26.6406 47.1241 26.7723 47.3585 27.0067C47.5929 27.2412 47.7246 27.5591 47.7246 27.8906V30.9119C47.8069 33.1123 48.6282 35.2208 50.0562 36.897C50.857 37.779 51.8212 38.4975 52.8955 39.0125C54.8211 39.8773 56.9536 40.1739 59.0421 39.8675C61.1305 39.561 63.0879 38.6643 64.6839 37.2828C65.2867 36.7414 66.0091 36.3503 66.792 36.1414L67.1863 36.0657C67.9202 35.9395 68.6699 35.9342 69.4055 36.0499C69.9801 36.1439 70.568 36.1153 71.1308 35.9662C71.6935 35.817 72.2184 35.5506 72.6709 35.1844C72.7772 35.0953 72.8699 35.0049 72.9871 34.8938C73.6219 34.2035 73.9744 33.3 73.9746 32.3621L73.9721 29.1895C73.9721 28.858 74.1038 28.54 74.3382 28.3056C74.5726 28.0712 74.8906 27.9395 75.2221 27.9395C75.5536 27.9395 75.8715 28.0712 76.106 28.3056C76.3404 28.54 76.4721 28.858 76.4721 29.1895L76.4746 31.5784C76.4746 32.1912 76.4709 32.5013 76.4697 32.5134C76.4403 34.0731 75.8199 35.5635 74.7339 36.6833C74.5459 36.8628 74.4128 36.9873 74.2712 37.1045C73.5463 37.6964 72.7046 38.1286 71.8011 38.3728C70.8976 38.617 69.9528 38.6678 69.0284 38.5217C68.553 38.4453 68.0682 38.4491 67.594 38.5327L67.2925 38.5889C66.9251 38.719 66.5882 38.923 66.3025 39.1882C63.7869 41.3153 60.6014 42.4863 57.3071 42.4951Z" fill="#B3404A"/>
<path d="M28.7597 42.5C28.3933 42.5016 28.0304 42.4291 27.6927 42.2871C27.355 42.145 27.0495 41.9363 26.7944 41.6733C26.5393 41.4103 26.3399 41.0986 26.2082 40.7568C26.0765 40.4149 26.0151 40.05 26.0277 39.6839C26.0171 39.1313 26.1854 38.5901 26.5075 38.1409L23.8378 35.4419C23.6047 35.2062 23.4747 34.8876 23.4766 34.5561C23.4784 34.2246 23.6119 33.9075 23.8475 33.6744C24.0832 33.4413 24.4019 33.3113 24.7334 33.3132C25.0648 33.315 25.382 33.4484 25.6151 33.6841L29.1271 37.2339C29.3592 37.4688 29.489 37.786 29.4881 38.1163C29.4872 38.4465 29.3557 38.763 29.1222 38.9966L28.5851 39.5337C28.5479 39.5746 28.5267 39.6274 28.5253 39.6827C28.5186 39.7298 28.5222 39.7779 28.5356 39.8236C28.5491 39.8693 28.5722 39.9115 28.6034 39.9476C28.6515 39.9893 28.714 40.0106 28.7777 40.007C28.8413 40.0033 28.9009 39.975 28.944 39.928L32.6342 36.1622C32.686 36.1085 32.7145 36.0365 32.7135 35.962C32.7115 35.8826 32.6792 35.807 32.6232 35.7508C32.5784 35.7144 32.5221 35.6953 32.4645 35.697C32.4066 35.702 32.3517 35.7246 32.307 35.7617L31.7601 36.3086C31.6441 36.4247 31.5063 36.5168 31.3547 36.5797C31.2031 36.6425 31.0405 36.6749 30.8764 36.6749C30.7094 36.6832 30.5426 36.654 30.3884 36.5893C30.2341 36.5247 30.0964 36.4263 29.9853 36.3013L26.1974 32.4512C25.9654 32.2148 25.8368 31.8959 25.8397 31.5647C25.8427 31.2335 25.977 30.917 26.2131 30.6847C26.4493 30.4525 26.768 30.3234 27.0992 30.326C27.4304 30.3285 27.7471 30.4624 27.9796 30.6983L30.913 33.6793C31.3642 33.3666 31.8997 33.1984 32.4486 33.1971C32.8123 33.1949 33.1728 33.265 33.5092 33.4032C33.8457 33.5414 34.1513 33.7449 34.4085 34.0021C34.6657 34.2593 34.8692 34.5649 35.0074 34.9014C35.1456 35.2378 35.2157 35.5983 35.2135 35.962C35.2158 36.3254 35.146 36.6857 35.0081 37.022C34.8703 37.3583 34.6671 37.6639 34.4103 37.9212L30.7189 41.6883C30.4619 41.946 30.1565 42.1504 29.8203 42.2897C29.4841 42.429 29.1236 42.5005 28.7597 42.5Z" fill="#B3404A"/>
<path d="M23.1404 36.2439C22.2694 36.2485 21.421 35.9667 20.7258 35.4419L16.8269 32.4805L14.0388 35.0305C13.5155 35.5195 12.879 35.8711 12.1865 36.0539C11.4939 36.2367 10.7668 36.2449 10.0703 36.0778C9.34668 35.9001 8.67765 35.5476 8.12179 35.0514C7.56593 34.5551 7.14019 33.9302 6.88185 33.2312L4.30006 26.4014C4.02291 25.6693 3.92733 24.881 4.02151 24.104C4.11569 23.327 4.39683 22.5843 4.84083 21.9397C5.24335 21.3423 5.78651 20.8529 6.42253 20.5147C7.05854 20.1765 7.76793 19.9997 8.4883 20H19.582C19.6425 20.0002 19.7029 20.0047 19.7627 20.0134C20.7239 20.0737 21.6509 20.3925 22.4458 20.9363C22.9907 21.3208 23.4547 21.8086 23.8118 22.3718C25.1155 24.3237 26.418 26.2622 27.7253 28.2092C28.2922 29.1098 28.5401 30.1748 28.4292 31.2331C28.3182 32.2915 27.855 33.2819 27.1138 34.0454L26.4107 34.7937C25.9933 35.2457 25.4878 35.6075 24.9254 35.8569C24.363 36.1063 23.7556 36.238 23.1404 36.2439ZM16.7524 29.6045C17.0249 29.6044 17.2899 29.6935 17.5068 29.8584L22.2371 33.4496C22.6044 33.6929 23.0495 33.79 23.4847 33.7218C23.92 33.6535 24.314 33.425 24.5894 33.081L25.2925 32.3339C25.6437 31.981 25.8691 31.5222 25.9337 31.0285C25.9984 30.5348 25.8987 30.0335 25.6502 29.602C24.3403 27.6537 23.0354 25.7079 21.7354 23.7646C21.5528 23.4689 21.3164 23.2101 21.0383 23.0016C20.5487 22.6697 19.9697 22.4947 19.3782 22.5H8.4883C8.17228 22.5025 7.86174 22.5827 7.58396 22.7334C7.30619 22.8841 7.06969 23.1007 6.89527 23.3643C6.68184 23.6763 6.54716 24.0354 6.50273 24.4108C6.4583 24.7862 6.50545 25.1668 6.64015 25.52L9.2195 32.345C9.33137 32.6631 9.5204 32.9485 9.76965 33.1756C10.0189 33.4027 10.3206 33.5644 10.6477 33.6463C10.9475 33.7155 11.2597 33.7096 11.5568 33.6294C11.8538 33.5491 12.1264 33.3968 12.3506 33.1861L15.9089 29.9317C16.1394 29.7211 16.4403 29.6044 16.7524 29.6045Z" fill="#B3404A"/>
<path d="M31.4746 47.5H7.72461C7.39309 47.5 7.07515 47.3683 6.84073 47.1339C6.60631 46.8995 6.47461 46.5815 6.47461 46.25C6.47461 45.9185 6.60631 45.6005 6.84073 45.3661C7.07515 45.1317 7.39309 45 7.72461 45H31.4746C31.8061 45 32.1241 45.1317 32.3585 45.3661C32.5929 45.6005 32.7246 45.9185 32.7246 46.25C32.7246 46.5815 32.5929 46.8995 32.3585 47.1339C32.1241 47.3683 31.8061 47.5 31.4746 47.5Z" fill="#B3404A"/>
<path d="M72.7246 47.5H48.9746C48.6431 47.5 48.3251 47.3683 48.0907 47.1339C47.8563 46.8995 47.7246 46.5815 47.7246 46.25C47.7246 45.9185 47.8563 45.6005 48.0907 45.3661C48.3251 45.1317 48.6431 45 48.9746 45H72.7246C73.0561 45 73.3741 45.1317 73.6085 45.3661C73.8429 45.6005 73.9746 45.9185 73.9746 46.25C73.9746 46.5815 73.8429 46.8995 73.6085 47.1339C73.3741 47.3683 73.0561 47.5 72.7246 47.5Z" fill="#B3404A"/>
<path d="M28.3496 67.5H10.8496C9.68929 67.5 8.57649 67.0391 7.75602 66.2186C6.93555 65.3981 6.47461 64.2853 6.47461 63.125C6.47461 61.9647 6.93555 60.8519 7.75602 60.0314C8.57649 59.2109 9.68929 58.75 10.8496 58.75H28.3496C29.5099 58.75 30.6227 59.2109 31.4432 60.0314C32.2637 60.8519 32.7246 61.9647 32.7246 63.125C32.7246 64.2853 32.2637 65.3981 31.4432 66.2186C30.6227 67.0391 29.5099 67.5 28.3496 67.5ZM10.8496 61.25C10.3523 61.25 9.87541 61.4475 9.52378 61.7992C9.17215 62.1508 8.97461 62.6277 8.97461 63.125C8.97461 63.6223 9.17215 64.0992 9.52378 64.4508C9.87541 64.8025 10.3523 65 10.8496 65H28.3496C28.8469 65 29.3238 64.8025 29.6754 64.4508C30.0271 64.0992 30.2246 63.6223 30.2246 63.125C30.2246 62.6277 30.0271 62.1508 29.6754 61.7992C29.3238 61.4475 28.8469 61.25 28.3496 61.25H10.8496Z" fill="#B3404A"/>
<path d="M25.2246 53.75H12.7246C12.3931 53.75 12.0751 53.6183 11.8407 53.3839C11.6063 53.1495 11.4746 52.8315 11.4746 52.5C11.4746 52.1685 11.6063 51.8505 11.8407 51.6161C12.0751 51.3817 12.3931 51.25 12.7246 51.25H25.2246C25.5561 51.25 25.8741 51.3817 26.1085 51.6161C26.3429 51.8505 26.4746 52.1685 26.4746 52.5C26.4746 52.8315 26.3429 53.1495 26.1085 53.3839C25.8741 53.6183 25.5561 53.75 25.2246 53.75Z" fill="#B3404A"/>
<path d="M69.6016 67.5H52.1016C50.9412 67.5 49.8284 67.0391 49.008 66.2186C48.1875 65.3981 47.7266 64.2853 47.7266 63.125C47.7266 61.9647 48.1875 60.8519 49.008 60.0314C49.8284 59.2109 50.9412 58.75 52.1016 58.75H69.6016C70.7619 58.75 71.8747 59.2109 72.6952 60.0314C73.5156 60.8519 73.9766 61.9647 73.9766 63.125C73.9766 64.2853 73.5156 65.3981 72.6952 66.2186C71.8747 67.0391 70.7619 67.5 69.6016 67.5ZM52.1016 61.25C51.6043 61.25 51.1274 61.4475 50.7757 61.7992C50.4241 62.1508 50.2266 62.6277 50.2266 63.125C50.2266 63.6223 50.4241 64.0992 50.7757 64.4508C51.1274 64.8025 51.6043 65 52.1016 65H69.6016C70.0988 65 70.5758 64.8025 70.9274 64.4508C71.279 64.0992 71.4766 63.6223 71.4766 63.125C71.4766 62.6277 71.279 62.1508 70.9274 61.7992C70.5758 61.4475 70.0988 61.25 69.6016 61.25H52.1016Z" fill="#B3404A"/>
<path d="M66.4766 53.75H53.9766C53.645 53.75 53.3271 53.6183 53.0927 53.3839C52.8583 53.1495 52.7266 52.8315 52.7266 52.5C52.7266 52.1685 52.8583 51.8505 53.0927 51.6161C53.3271 51.3817 53.645 51.25 53.9766 51.25H66.4766C66.8081 51.25 67.126 51.3817 67.3604 51.6161C67.5949 51.8505 67.7266 52.1685 67.7266 52.5C67.7266 52.8315 67.5949 53.1495 67.3604 53.3839C67.126 53.6183 66.8081 53.75 66.4766 53.75Z" fill="#B3404A"/>
</g>
<defs>
<clipPath id="clip0_387_3439">
<rect width="80" height="80" fill="white" transform="translate(0.226562)"/>
</clipPath>
</defs>
</svg>
